<svg version="1.1" id="Layer_1" xmlns="http://www.w3.org/2000/svg" xmlns:xlink="http://www.w3.org/1999/xlink" x="0px" y="0px"
	 width="100%" viewBox="0 0 945 312" enable-background="new 0 0 945 312" xml:space="preserve">
<path fill="#010101" opacity="1.000000" stroke="none" 
	d="
M589.000000,313.000000 
	C392.666656,313.000000 196.833328,313.000000 1.000000,313.000000 
	C1.000000,209.000000 1.000000,105.000000 1.000000,1.000000 
	C316.000000,1.000000 631.000000,1.000000 946.000000,1.000000 
	C946.000000,105.000000 946.000000,209.000000 946.000000,313.000000 
	C827.166687,313.000000 708.333313,313.000000 589.000000,313.000000 
M303.392029,66.044960 
	C302.922791,66.381531 302.453522,66.718102 301.343567,67.301552 
	C300.901367,67.218468 300.459198,67.135384 299.724976,66.581024 
	C299.143555,66.742485 298.562164,66.903954 297.076477,67.322060 
	C278.517181,67.322060 259.957886,67.322060 241.285370,67.322060 
	C240.665436,71.819176 240.103088,75.898560 238.958466,80.123619 
	C238.974182,81.082947 238.989899,82.042274 239.114792,83.866058 
	C238.380219,89.573563 237.645660,95.281059 236.364059,100.747688 
	C235.716232,100.833580 235.068405,100.919472 234.420578,101.005356 
	C235.226608,101.339317 236.032623,101.673279 236.935303,102.788551 
	C235.198868,116.965500 233.462433,131.142456 230.899918,145.165588 
	C229.788391,146.120758 228.676880,147.075943 227.565353,148.031113 
	C227.837143,148.228333 228.108932,148.425568 228.380737,148.622787 
	C229.418915,148.049438 230.457092,147.476105 231.548126,147.666901 
	C231.354355,149.315552 231.171692,150.965607 230.965103,152.612656 
	C228.983841,168.408997 226.998550,184.204819 224.428467,200.072769 
	C224.095093,200.374878 223.761719,200.676987 223.428360,200.979095 
	C223.906754,201.321503 224.385147,201.663925 224.974716,202.674118 
	C224.874771,203.110550 224.774841,203.546967 224.026169,203.965637 
	C222.753204,204.421188 221.480240,204.876724 220.207275,205.332275 
	C220.383392,205.829620 220.559525,206.326965 220.735641,206.824326 
	C221.879242,206.897232 223.022842,206.970139 224.301422,207.820221 
	C224.055893,209.617828 223.810349,211.415421 222.827179,213.051666 
	C221.758881,212.541809 220.690582,212.031937 219.389481,211.410980 
	C218.349411,215.561432 219.819595,218.346725 222.362534,221.318039 
	C222.124313,221.374176 221.886093,221.430298 221.207565,221.319733 
	C221.069870,221.381241 220.932175,221.442764 220.794479,221.504288 
	C221.079529,221.593185 221.364594,221.682083 222.439209,222.555634 
	C222.172684,223.204666 221.906158,223.853714 221.205978,224.325043 
	C221.067886,224.383743 220.929810,224.442444 220.791718,224.501160 
	C221.076385,224.574799 221.361038,224.648422 222.128937,225.447159 
	C221.989624,226.586670 221.850311,227.726196 221.049194,229.088898 
	C221.180038,229.771149 221.310898,230.453384 221.482468,231.979935 
	C221.234879,233.649048 220.987305,235.318146 220.104782,237.122711 
	C220.153168,238.108704 220.201538,239.094696 220.332718,240.972336 
	C219.228989,249.648605 218.125244,258.324890 216.433685,267.071716 
	C216.098679,267.373871 215.763672,267.676056 215.428665,267.978241 
	C215.908401,268.320862 216.388138,268.663483 216.974258,269.758331 
	C216.834839,270.498047 216.695419,271.237732 215.871063,271.990326 
	C214.253906,271.625977 212.636749,271.261627 211.019592,270.897278 
	C211.058884,270.447235 211.098190,269.997192 211.137482,269.547180 
	C210.091003,270.365509 209.044510,271.183838 207.952682,271.399048 
	C207.624451,270.929626 207.296234,270.460236 206.803268,269.328125 
	C206.898712,268.886932 206.994156,268.445740 207.713455,267.905121 
	C207.610733,266.930267 207.508026,265.955414 207.336823,264.176819 
	C208.671707,253.456940 210.006607,242.737076 211.995438,231.912277 
	C217.063416,228.597244 213.138550,224.635956 212.682281,220.051208 
	C213.280273,215.375076 213.878265,210.698944 215.058731,205.870026 
	C215.024918,204.909225 214.991104,203.948425 214.837173,202.240799 
	C214.956879,201.497101 215.076599,200.753403 215.894104,199.834427 
	C215.935104,197.891220 215.976120,195.948013 215.899033,193.151779 
	C216.310776,190.103439 216.722519,187.055084 217.816452,183.857544 
	C218.764984,181.926682 221.340515,180.039062 217.826187,177.328003 
	C217.922821,176.887299 218.019440,176.446579 218.690125,175.916046 
	C219.568573,174.279861 221.962479,172.678833 218.693192,170.158524 
	C218.850555,169.108521 219.007935,168.058533 220.005905,167.004883 
	C222.098206,167.004883 224.190521,167.004883 226.828400,167.004883 
	C225.581009,164.263535 224.678635,162.280411 223.758179,160.257553 
	C222.229095,160.940720 221.068710,161.459167 219.783707,161.118149 
	C220.225906,157.747299 220.668091,154.376434 221.813293,150.847427 
	C221.816299,149.212799 221.819290,147.578171 221.702682,145.155045 
	C221.853455,144.106018 222.004227,143.056992 222.857330,142.003418 
	C223.778519,141.753647 224.699707,141.503876 225.620911,141.254105 
	C225.588577,140.983353 225.556244,140.712601 225.523926,140.441864 
	C224.474380,140.288345 223.424835,140.134811 222.280701,139.232132 
	C222.560547,137.490082 222.840408,135.748047 223.678116,133.925507 
	C223.990662,133.625687 224.303223,133.325867 224.615768,133.026047 
	C224.172195,132.679565 223.728622,132.333069 223.215607,131.167664 
	C224.345428,122.455803 225.475235,113.743942 227.292969,104.999283 
	C228.747040,104.477425 230.201126,103.955566 231.133667,103.620888 
	C229.905334,100.777847 228.860489,98.359459 227.710434,95.132957 
	C227.989075,93.031113 228.267715,90.929276 229.222244,88.959351 
	C230.024490,89.641388 230.826736,90.323425 231.874756,91.214409 
	C232.598389,90.179550 233.331421,89.131241 234.815598,87.008705 
	C231.987793,87.008705 230.430267,87.008705 228.745422,86.121910 
	C229.518341,80.415565 230.291260,74.709221 231.762970,69.080727 
	C232.989944,69.324921 234.216919,69.569115 236.249649,69.973663 
	C231.109482,62.261246 227.928253,61.685154 224.075729,67.300385 
	C207.428116,67.311195 190.780426,67.302437 174.132996,67.361549 
	C172.368164,67.367813 170.604752,67.772156 168.187943,68.108772 
	C166.535446,68.883965 164.882950,69.659157 162.423279,70.812996 
	C162.229996,73.566696 164.559128,74.402016 168.069717,74.841888 
	C167.686523,77.559822 167.303329,80.277748 166.189514,82.998672 
	C165.458878,82.999840 164.728256,83.001007 163.998199,82.408485 
	C163.903580,81.903503 163.808975,81.398529 163.714355,80.893547 
	C163.481094,80.980736 163.247818,81.067932 163.014557,81.155121 
	C163.343704,81.769646 163.672852,82.384163 164.003555,83.757217 
	C164.233276,85.988976 161.915222,89.051552 166.155869,90.885078 
	C165.588593,95.248215 165.021332,99.611351 163.887283,104.138916 
	C163.925400,105.092766 163.963531,106.046623 164.117264,107.864380 
	C160.361511,138.906982 156.605743,169.949585 152.105927,201.021378 
	C151.432724,201.702042 150.759521,202.382690 150.086304,203.063339 
	C150.811539,203.702545 151.536789,204.341736 152.400131,205.881256 
	C151.989655,208.237427 151.579178,210.593597 150.561951,212.936234 
	C149.845978,213.369919 149.130005,213.803589 148.414032,214.237274 
	C149.124542,214.469925 149.835052,214.702560 151.124863,215.458878 
	C151.048401,215.968155 150.971939,216.477432 150.343033,216.762482 
	C147.656250,217.910782 147.651978,218.089066 150.351990,222.931747 
	C150.090469,224.947647 149.828934,226.963531 149.025284,229.091934 
	C149.077942,229.747452 149.130600,230.402954 149.303268,231.906799 
	C149.064941,233.597824 148.826614,235.288834 147.940399,237.164749 
	C147.078217,239.426392 144.117538,241.634445 147.859344,244.831558 
	C146.855072,252.551743 145.850800,260.271942 144.230286,267.994751 
	C143.819427,267.997314 143.408585,267.999878 142.984665,267.310883 
	C142.455353,266.707886 141.926025,266.104889 141.396729,265.501892 
	C141.076172,266.020111 140.755615,266.538300 140.435059,267.056488 
	C141.291046,267.370178 142.147034,267.683868 142.743210,268.627167 
	C143.334793,269.456024 143.926376,270.284912 144.571533,271.781921 
	C144.392456,272.188568 144.213379,272.595184 143.404770,272.948883 
	C140.358292,272.480530 137.925568,275.045929 137.952881,280.409363 
	C140.842529,278.089142 142.927841,276.414764 145.924103,274.530090 
	C164.365601,274.521484 182.807358,274.554626 201.248154,274.436493 
	C203.000381,274.425293 204.746552,273.466705 206.876404,272.708954 
	C207.251587,272.471832 207.626770,272.234711 208.255875,272.596344 
	C208.044662,276.692780 211.509460,276.165344 213.805969,276.640350 
	C214.664139,276.817841 215.876541,275.282837 217.872177,274.505585 
	C236.239182,274.610413 254.606171,274.715210 273.240387,275.363953 
	C274.484955,276.262085 275.729523,277.160217 276.974091,278.058350 
	C277.492401,276.497833 277.355316,275.691681 276.910645,275.128387 
	C276.440521,274.532867 275.677460,274.168579 274.944031,273.156311 
	C275.013641,272.795197 275.083221,272.434052 275.849365,271.873413 
	C275.690979,271.197266 275.532623,270.521118 275.314636,269.026733 
	C275.568451,267.685883 275.822266,266.345001 276.774048,265.077087 
	C279.460999,266.186096 280.657410,265.358215 279.635101,262.545563 
	C279.042084,260.914032 277.859253,259.496857 276.821869,257.125610 
	C277.076416,255.425797 277.330963,253.725983 278.088226,251.896103 
	C278.040375,251.258682 277.992523,250.621262 277.828674,249.109024 
	C281.243896,220.144897 284.659088,191.180771 288.074310,162.216660 
	C291.529144,167.890396 293.995728,173.741959 296.457184,179.595688 
	C306.164673,202.681671 315.870575,225.768341 324.782532,248.981171 
	C323.275513,251.809631 321.768524,254.638107 319.976501,258.001495 
	C322.900391,258.421448 324.596710,258.665070 326.293030,258.908691 
	C326.118652,259.099243 325.944275,259.289764 325.769897,259.480286 
	C326.917572,260.291138 328.065216,261.101990 329.758240,262.071411 
	C330.189667,262.670929 330.621063,263.270447 331.010040,264.612030 
	C331.731476,268.760437 332.452942,272.908844 333.174377,277.057251 
	C333.812866,277.042389 334.451355,277.027496 335.089874,277.012634 
	C335.414520,275.950562 335.739166,274.888458 336.919159,274.230042 
	C356.127991,274.305145 375.337097,274.430542 394.544708,274.308899 
	C395.518890,274.302704 396.479584,272.167358 397.986816,270.917999 
	C397.944275,270.264130 397.901764,269.610260 397.729279,268.074860 
	C398.894684,258.720703 400.060089,249.366547 401.873657,239.875000 
	C401.803406,238.881470 401.733154,237.887924 401.535339,236.110535 
	C401.724976,235.072861 401.914581,234.035172 402.631439,232.771957 
	C403.637970,231.568726 404.644531,230.365509 405.651062,229.162277 
	C404.690155,228.755142 403.729248,228.348022 402.618896,227.155762 
	C402.787445,226.106186 402.955994,225.056625 403.742981,223.902603 
	C403.633698,222.927658 403.524384,221.952728 403.329407,220.188492 
	C403.570496,218.381561 403.826111,216.576447 404.050385,214.767441 
	C406.396088,195.846832 408.736755,176.925598 411.773376,157.859894 
	C411.631287,156.858353 411.489197,155.856812 411.264252,154.090591 
	C411.898041,149.419525 412.531799,144.748444 413.860077,139.875839 
	C413.696838,139.200974 413.533600,138.526108 413.283447,137.185287 
	C413.463959,136.784851 413.644470,136.384399 414.532867,135.979813 
	C415.184235,135.651413 415.835602,135.323013 416.487000,134.994629 
	C415.671387,134.662323 414.855743,134.330017 413.894745,133.127457 
	C414.256134,129.839264 414.548187,126.541679 414.991516,123.264557 
	C416.515106,112.001511 418.091614,100.745636 419.911194,90.375809 
	C420.435699,92.254852 420.960205,94.133896 421.584656,96.370895 
	C423.902374,92.899147 422.545593,90.947517 419.158905,88.747551 
	C419.659790,85.175041 420.160645,81.602524 421.149139,77.882607 
	C421.080536,77.249634 421.011932,76.616653 420.840210,75.101097 
	C421.119354,73.364685 421.398499,71.628281 422.102844,69.631165 
	C424.165497,68.623055 426.228119,67.614944 428.454468,66.526825 
	C424.888336,63.683475 421.401581,64.069672 417.061768,67.325172 
	C399.706635,67.234932 382.351471,67.144699 364.959747,66.533791 
	C364.825775,66.303024 364.691803,66.072250 364.557831,65.841469 
	C364.377319,66.287392 364.196808,66.733315 363.569244,67.806580 
	C360.033722,96.804688 356.499756,125.802986 352.961700,154.800781 
	C352.035065,162.395599 351.095917,169.988907 350.162506,177.582901 
	C349.815887,177.607346 349.469269,177.631775 349.122650,177.656219 
	C342.045258,159.849976 334.967865,142.043732 328.209717,123.523064 
	C328.209717,121.000519 328.209717,118.477974 328.209717,115.081696 
	C327.018005,117.007133 326.380310,118.037437 325.260651,118.630844 
	C324.868103,117.413513 324.475555,116.196175 324.754944,114.883270 
	C326.196106,112.956818 327.637268,111.030357 329.532837,108.496483 
	C326.074982,108.743599 323.840851,108.903259 321.158966,108.567322 
	C320.660828,107.083969 320.162689,105.600609 320.288391,103.732605 
	C322.090149,100.231529 319.302490,99.276711 316.748901,97.410072 
	C316.209595,95.929634 315.670319,94.449196 315.943512,92.994644 
	C317.496704,92.994644 319.049896,92.994644 320.938477,92.994644 
	C320.275879,86.875160 315.723083,89.139229 312.627411,87.404793 
	C312.126190,85.271469 311.624939,83.138145 311.783569,80.867920 
	C311.471619,78.642937 311.670654,74.746582 310.763275,74.469185 
	C305.583588,72.885658 308.982819,70.020569 309.315582,67.499382 
	C307.828888,67.672775 306.411377,67.838097 305.000000,68.000305 
	C305.000000,68.000305 304.996002,68.008896 304.845093,67.464577 
	C304.563782,66.976898 304.282501,66.489212 304.512604,65.967484 
	C304.774963,65.658386 305.037354,65.349281 305.299713,65.040184 
	C305.018860,64.906822 304.738007,64.773453 304.457153,64.640083 
	C304.304352,65.092880 304.151581,65.545677 303.392029,66.044960 
M422.157684,146.670547 
	C422.061096,147.111206 421.964508,147.551865 421.251740,148.095825 
	C421.353424,149.071793 421.455078,150.047760 421.660614,151.788712 
	C421.343872,153.853912 421.027130,155.919128 420.192535,158.052628 
	C420.272034,158.711273 420.351501,159.369919 420.565765,160.813446 
	C420.361237,162.451324 420.162354,164.089951 419.951233,165.726990 
	C418.306030,178.485092 416.658447,191.242859 414.303650,203.991913 
	C413.039032,203.502090 411.774445,203.012268 409.571350,202.158936 
	C409.817230,204.390610 409.992554,205.981766 410.160889,207.509842 
	C412.249146,206.847458 413.576691,206.426361 415.022919,206.514893 
	C414.960663,206.677856 414.898407,206.840805 414.294067,207.325195 
	C414.323761,208.254562 414.353455,209.183929 414.503235,210.849106 
	C414.253296,212.526688 414.003357,214.204269 413.079346,216.096039 
	C413.218170,216.778107 413.356995,217.460190 413.543213,219.031052 
	C411.972656,231.684128 410.402100,244.337189 408.102417,257.015594 
	C407.461975,257.561249 406.821533,258.106934 406.181091,258.652618 
	C406.920593,259.135010 407.660095,259.617432 408.519684,260.884827 
	C408.324799,261.921967 408.129913,262.959137 407.364594,264.076324 
	C407.045593,264.380188 406.726562,264.684021 406.407532,264.987854 
	C406.872375,265.328674 407.337219,265.669525 407.884644,266.812378 
	C407.569427,269.213745 407.254181,271.615143 406.254211,274.114319 
	C405.525055,275.108215 404.795898,276.102112 403.866852,277.368500 
	C407.235748,278.394348 409.173706,278.291199 409.925812,274.542694 
	C446.282410,274.022949 482.639008,273.503174 519.012939,273.704254 
	C519.488525,274.415253 519.964111,275.126282 520.439697,275.837280 
	C521.297668,274.636658 522.155640,273.436035 523.732361,271.991302 
	C525.525940,271.634491 527.326660,271.310303 529.111938,270.916016 
	C561.695801,263.719452 586.213745,246.143646 599.866211,215.100357 
	C609.405762,193.409271 612.925293,170.458527 612.286316,146.879486 
	C611.791626,128.620193 607.429077,111.370560 597.363892,95.072227 
	C592.580933,90.371277 587.797974,85.670326 582.644958,80.397659 
	C570.696045,72.229164 557.058960,69.345909 542.937927,67.210129 
	C542.284241,67.328499 541.630554,67.446869 540.147339,67.715576 
	C535.494690,67.588020 530.842285,67.362328 526.189270,67.348778 
	C494.923615,67.257698 463.657867,67.211685 431.656647,67.111900 
	C431.431335,68.406143 431.205994,69.700378 431.104492,71.873405 
	C430.784851,73.902260 430.465210,75.931107 429.492645,78.048744 
	C429.061371,78.565422 428.630096,79.082092 428.198822,79.598755 
	C428.778198,79.856049 429.357544,80.113350 429.996033,81.375580 
	C429.355591,85.918755 428.715149,90.461922 427.473267,95.074310 
	C427.123047,95.462936 426.772797,95.851562 426.422546,96.240189 
	C426.927765,96.494568 427.433014,96.748947 428.047333,97.807610 
	C427.850525,98.862717 427.653687,99.917824 426.940063,101.098152 
	C426.997650,101.743523 427.055237,102.388885 427.218048,103.918533 
	C426.410187,110.608597 425.602356,117.298653 424.178375,124.112709 
	C424.321808,124.789764 424.465240,125.466812 424.687195,126.936279 
	C424.375763,128.757935 424.064362,130.579575 422.991272,132.224670 
	C420.252258,133.704483 418.065704,135.480469 418.922302,139.304367 
	C420.559937,138.398804 421.812897,137.705978 423.182343,137.849258 
	C423.010132,139.240784 422.837952,140.632324 422.236511,142.441864 
	C422.162750,143.629333 422.089020,144.816818 422.157684,146.670547 
M692.221863,79.787956 
	C692.679016,75.754417 693.136169,71.720871 693.601624,67.614014 
	C672.711731,67.614014 652.467041,67.614014 632.085205,67.614014 
	C631.713745,70.155556 631.327637,72.441116 631.051514,74.739883 
	C627.517334,104.160858 623.800720,133.561844 620.551392,163.014359 
	C618.618286,180.536484 616.197937,198.138626 616.172913,215.707886 
	C616.129211,246.420578 633.565979,267.407867 663.272339,275.168488 
	C683.256287,280.389191 703.528442,280.231659 723.792603,277.866516 
	C765.690308,272.976227 792.504456,249.133102 801.039368,208.025513 
	C804.716125,190.316345 806.177368,172.135620 808.401245,154.138992 
	C811.950256,125.419296 815.295471,96.674423 818.765137,67.619225 
	C798.129150,67.619225 777.723145,67.619225 757.051880,67.619225 
	C752.361450,106.585342 747.716858,145.418411 742.979980,184.240219 
	C742.316772,189.675644 741.616516,195.165604 740.222290,200.442413 
	C734.539062,221.950531 720.815613,230.699615 698.868835,227.151474 
	C688.968079,225.550827 681.755371,219.460709 680.252075,209.659927 
	C679.130432,202.347412 678.859619,194.682892 679.663452,187.334106 
	C683.555115,151.752716 687.937927,116.225060 692.221863,79.787956 
M691.345398,50.815975 
	C690.884338,53.391384 690.423218,55.966793 689.867981,59.068199 
	C702.862732,54.155819 715.318420,49.334229 727.883972,44.818260 
	C729.779968,44.136871 732.450989,44.267570 734.315796,45.067005 
	C744.782410,49.553741 755.111816,54.360607 765.751648,59.177570 
	C767.880493,49.049969 769.920288,39.345993 772.011536,29.397364 
	C761.006592,24.395866 750.196045,19.386156 739.272522,14.636528 
	C737.855164,14.020233 735.704834,14.340925 734.147278,14.914795 
	C722.468750,19.217571 710.814636,23.595423 699.263062,28.224447 
	C697.618225,28.883543 695.833252,30.823910 695.374207,32.513817 
	C693.812134,38.264446 692.814697,44.168430 691.345398,50.815975 
M214.410339,238.151505 
	C214.081970,238.848724 213.753601,239.545959 213.425247,240.243195 
	C213.844025,240.317245 214.262802,240.391296 214.681595,240.465347 
	C214.807022,239.725937 214.932449,238.986542 214.410339,238.151505 
M524.572937,275.584900 
	C525.603210,275.825500 526.633484,276.066101 527.663757,276.306732 
	C527.740662,275.881989 527.817627,275.457275 527.894531,275.032562 
	C526.954163,275.085358 526.013794,275.138153 524.572937,275.584900 
M225.400085,156.769882 
	C225.878525,157.445709 226.356964,158.121536 226.835403,158.797348 
	C227.160156,158.481232 227.484924,158.165115 227.809677,157.848984 
	C227.145905,157.353439 226.482132,156.857895 225.400085,156.769882 
M406.381042,225.234802 
	C406.861694,225.106827 407.342346,224.978851 407.822968,224.850876 
	C407.651581,224.473175 407.480164,224.095474 407.308777,223.717773 
	C406.977112,224.040222 406.645447,224.362671 406.381042,225.234802 
M414.179718,149.075027 
	C414.439453,149.567474 414.699219,150.059906 414.958954,150.552383 
	C415.179657,150.373413 415.605194,150.057083 415.590851,150.035660 
	C415.274780,149.564209 414.909943,149.125427 414.179718,149.075027 
M406.323914,232.681595 
	C406.610504,232.970978 406.897064,233.260361 407.183655,233.549759 
	C407.362671,233.021927 407.541718,232.494080 407.720734,231.966263 
	C407.328491,232.038635 406.936218,232.111023 406.323914,232.681595 
M413.855957,199.813919 
	C413.797150,199.192581 413.738342,198.571259 413.679535,197.949921 
	C413.462372,197.983704 413.245209,198.017471 413.028046,198.051254 
	C413.170013,198.750778 413.311951,199.450302 413.855957,199.813919 
M518.946716,277.835571 
	C518.797241,277.585205 518.696411,277.206024 518.482849,277.125305 
	C518.312683,277.061005 518.004883,277.360779 517.758179,277.498962 
	C518.005127,277.637634 518.252136,277.776276 518.946716,277.835571 
M235.080322,85.520065 
	C235.224915,85.762459 235.369507,86.004852 235.514099,86.247246 
	C235.648026,85.997276 235.942856,85.682724 235.875015,85.513718 
	C235.790756,85.303719 235.406631,85.214058 235.080322,85.520065 
M229.531799,134.758774 
	C229.403473,135.150009 229.254059,135.536545 229.164764,135.936493 
	C229.147110,136.015503 229.360794,136.146149 229.467789,136.252975 
	C229.595978,135.861740 229.724152,135.470505 229.531799,134.758774 
M418.163483,146.948776 
	C418.414093,146.799103 418.793579,146.698212 418.874542,146.484329 
	C418.938965,146.314148 418.638702,146.005920 418.500336,145.759003 
	C418.361542,146.006241 418.222748,146.253479 418.163483,146.948776 
M407.467804,218.234970 
	C407.594940,217.847260 407.743011,217.464218 407.831390,217.067886 
	C407.848907,216.989395 407.637512,216.859833 407.531708,216.753815 
	C407.404816,217.141464 407.277924,217.529099 407.467804,218.234970 
M146.532211,205.764999 
	C146.404846,206.153305 146.256561,206.536942 146.167923,206.933899 
	C146.150375,207.012421 146.362213,207.142181 146.468277,207.248306 
	C146.595428,206.860046 146.722595,206.471786 146.532211,205.764999 
M237.837387,71.051270 
	C237.585968,71.201088 237.206573,71.301697 237.123993,71.516434 
	C237.059097,71.685204 237.360687,71.994911 237.499466,72.242012 
	C237.638733,71.994644 237.778000,71.747269 237.837387,71.051270 
M415.077759,158.517944 
	C415.223206,158.761353 415.368652,159.004745 415.514130,159.248138 
	C415.648926,158.997070 415.945801,158.680481 415.877472,158.511551 
	C415.792053,158.300323 415.406372,158.210510 415.077759,158.517944 
M280.524200,252.631760 
	C280.470123,252.842010 280.416046,253.052261 280.362000,253.262512 
	C280.494659,253.127502 280.627319,252.992493 280.524200,252.631760 
M400.626587,272.474243 
	C400.839874,272.528961 401.053192,272.583649 401.266479,272.638336 
	C401.129425,272.503754 400.992371,272.369202 400.626587,272.474243 
M218.524765,203.632843 
	C218.470856,203.842255 218.416962,204.051666 218.363068,204.261078 
	C218.495255,204.126602 218.627457,203.992111 218.524765,203.632843 
M322.263947,261.813995 
	C322.377563,261.970856 322.491180,262.127747 322.604797,262.284607 
	C322.581909,262.066284 322.559021,261.847931 322.263947,261.813995 
M280.750458,256.827515 
	C280.586334,256.881989 280.422211,256.936462 280.258118,256.990936 
	C280.423218,257.044128 280.588348,257.097321 280.750458,256.827515 
M209.591888,277.517456 
	C209.591888,277.517456 209.476471,277.586609 209.591888,277.517456 
M509.482269,277.584747 
	C509.482269,277.584747 509.418152,277.476929 509.482269,277.584747 
M320.517303,97.410851 
	C320.517303,97.410851 320.585358,97.524773 320.517303,97.410851 
M425.589081,69.517273 
	C425.589081,69.517273 425.476776,69.584549 425.589081,69.517273 
M418.483124,109.585716 
	C418.483124,109.585716 418.419159,109.477211 418.483124,109.585716 
M227.516998,111.411888 
	C227.516998,111.411888 227.582001,111.521652 227.516998,111.411888 
M404.587128,271.518494 
	C404.587128,271.518494 404.477081,271.584503 404.587128,271.518494 
M420.587128,142.518402 
	C420.587128,142.518402 420.477051,142.584427 420.587128,142.518402 
M226.413742,147.482162 
	C226.413742,147.482162 226.523331,147.416519 226.413742,147.482162 
M148.413651,200.482010 
	C148.413651,200.482010 148.522781,200.416870 148.413651,200.482010 
z"/>
<path fill="#FDFDFD" opacity="1.000000" stroke="none" 
	d="
M411.078796,158.004547 
	C408.736755,176.925598 406.396088,195.846832 404.050385,214.767441 
	C403.826111,216.576447 403.570496,218.381561 403.228394,220.942963 
	C403.126434,222.467300 403.125488,223.237167 403.124512,224.007050 
	C402.955994,225.056625 402.787445,226.106186 402.494446,227.859650 
	C402.281403,230.041519 402.192810,231.519501 402.104187,232.997498 
	C401.914581,234.035172 401.724976,235.072861 401.410828,236.768875 
	C401.266083,238.288940 401.245819,239.150681 401.225525,240.012405 
	C400.060089,249.366547 398.894684,258.720703 397.603149,268.722260 
	C397.466858,269.920898 397.456726,270.472137 397.446594,271.023376 
	C396.479584,272.167358 395.518890,274.302704 394.544708,274.308899 
	C375.337097,274.430542 356.127991,274.305145 336.483337,273.664246 
	C334.382507,270.022308 332.717499,266.946136 331.052460,263.869995 
	C330.621063,263.270447 330.189667,262.670929 329.475464,261.624359 
	C329.252319,259.863159 329.704926,258.408173 329.294312,257.262543 
	C328.263184,254.385422 326.841888,251.648117 325.577057,248.854752 
	C315.870575,225.768341 306.164673,202.681671 296.457184,179.595688 
	C293.995728,173.741959 291.529144,167.890396 288.074310,162.216660 
	C284.659088,191.180771 281.243896,220.144897 277.718689,249.767578 
	C277.600952,250.959473 277.593231,251.492828 277.585510,252.026169 
	C277.330963,253.725983 277.076416,255.425797 276.695312,257.895142 
	C276.404510,260.777863 276.240295,262.890991 276.076080,265.004150 
	C275.822266,266.345001 275.568451,267.685883 275.211365,269.628967 
	C275.122955,270.845123 275.137878,271.459045 275.152802,272.072937 
	C275.083221,272.434052 275.013641,272.795197 274.764282,273.620850 
	C274.047424,274.330261 273.510284,274.575165 272.973175,274.820007 
	C254.606171,274.715210 236.239182,274.610413 217.282288,274.101501 
	C216.646927,273.124084 216.601471,272.550781 216.556015,271.977448 
	C216.695419,271.237732 216.834839,270.498047 217.041855,269.059387 
	C217.080139,267.907379 217.050827,267.454254 217.021515,267.001160 
	C218.125244,258.324890 219.228989,249.648605 220.491409,240.268768 
	C220.679962,238.705887 220.709839,237.846573 220.739716,236.987259 
	C220.987305,235.318146 221.234879,233.649048 221.622589,231.375641 
	C221.745483,230.136124 221.728241,229.500916 221.710999,228.865707 
	C221.850311,227.726196 221.989624,226.586670 221.842377,225.026657 
	C221.555801,224.606155 221.639648,224.502762 221.639648,224.502762 
	C221.906158,223.853714 222.172684,223.204666 222.002167,222.087265 
	C221.565109,221.618896 221.647888,221.486435 221.647888,221.486435 
	C221.886093,221.430298 222.124313,221.374176 222.633087,220.741425 
	C223.124039,217.847565 223.344437,215.530289 223.564819,213.213028 
	C223.810349,211.415421 224.055893,209.617828 224.438919,207.181427 
	C224.609253,205.689545 224.642075,204.836456 224.674896,203.983383 
	C224.774841,203.546967 224.874771,203.110550 225.038208,202.016113 
	C225.072617,200.905685 225.043503,200.453232 225.014404,200.000793 
	C226.998550,184.204819 228.983841,168.408997 230.965103,152.612656 
	C231.171692,150.965607 231.354355,149.315552 231.670959,147.046463 
	C231.771194,146.057144 231.748596,145.688278 231.726013,145.319397 
	C233.462433,131.142456 235.198868,116.965500 236.991257,102.149353 
	C237.001846,101.336288 236.956467,101.162430 236.911087,100.988564 
	C237.645660,95.281059 238.380219,89.573563 239.225677,83.163925 
	C239.404617,81.633835 239.472687,80.805885 239.540741,79.977936 
	C240.103088,75.898560 240.665436,71.819176 241.285370,67.322060 
	C259.957886,67.322060 278.517181,67.322060 297.711853,67.312187 
	C298.903809,67.218971 299.460419,67.135635 300.016998,67.052292 
	C300.459198,67.135384 300.901367,67.218468 301.955872,67.304192 
	C303.377441,67.540855 304.186707,67.774872 304.996002,68.008896 
	C304.996002,68.008896 305.000000,68.000305 304.992981,68.375336 
	C307.031891,72.835182 309.077820,76.919998 311.123718,81.004822 
	C311.624939,83.138145 312.126190,85.271469 312.836426,88.045746 
	C313.740601,90.114052 314.435822,91.541405 315.131042,92.968750 
	C315.670319,94.449196 316.209595,95.929634 316.906647,98.046112 
	C317.931122,100.493851 318.797852,102.305550 319.664581,104.117249 
	C320.162689,105.600609 320.660828,107.083969 321.445557,109.183823 
	C322.515747,111.526505 323.299377,113.252678 324.083008,114.978836 
	C324.475555,116.196175 324.868103,117.413513 325.525879,119.208359 
	C326.490906,121.269753 327.190674,122.753624 327.890442,124.237503 
	C334.967865,142.043732 342.045258,159.849976 349.122650,177.656219 
	C349.469269,177.631775 349.815887,177.607346 350.162506,177.582901 
	C351.095917,169.988907 352.035065,162.395599 352.961700,154.800781 
	C356.499756,125.802986 360.033722,96.804688 364.049438,67.553261 
	C364.685181,67.218117 364.840759,67.136284 364.996338,67.054459 
	C382.351471,67.144699 399.706635,67.234932 417.873779,67.350334 
	C419.683075,68.214294 420.680359,69.053085 421.677643,69.891876 
	C421.398499,71.628281 421.119354,73.364685 420.723633,75.764168 
	C420.625214,76.961494 420.643372,77.495758 420.661530,78.030014 
	C420.160645,81.602524 419.659790,85.175041 419.441498,89.126259 
	C419.724091,89.504967 419.647949,89.487022 419.647949,89.487022 
	C418.091614,100.745636 416.515106,112.001511 414.991516,123.264557 
	C414.548187,126.541679 414.256134,129.839264 413.834503,133.879959 
	C413.791168,135.082962 413.808075,135.533463 413.824982,135.983963 
	C413.644470,136.384399 413.463959,136.784851 413.207336,137.717010 
	C413.142670,138.858292 413.154144,139.467834 413.165588,140.077377 
	C412.531799,144.748444 411.898041,149.419525 411.173950,154.767609 
	C411.082062,156.297928 411.080444,157.151245 411.078796,158.004547 
z"/>
<path fill="#FDFDFD" opacity="1.000000" stroke="none" 
	d="
M408.831543,256.990265 
	C410.402100,244.337189 411.972656,231.684128 413.665588,218.397369 
	C413.776428,217.136398 413.764923,216.509125 413.753387,215.881851 
	C414.003357,214.204269 414.253296,212.526688 414.624146,210.212021 
	C414.775391,208.717865 414.805786,207.860809 414.836151,207.003738 
	C414.898407,206.840805 414.960663,206.677856 415.082581,205.935913 
	C415.098724,204.904877 415.055176,204.452805 415.011658,204.000748 
	C416.658447,191.242859 418.306030,178.485092 419.951233,165.726990 
	C420.162354,164.089951 420.361237,162.451324 420.665955,160.105408 
	C420.747589,158.926361 420.728973,158.455353 420.710388,157.984329 
	C421.027130,155.919128 421.343872,153.853912 421.756744,151.047440 
	C421.857910,149.534958 421.862915,148.763748 421.867950,147.992538 
	C421.964508,147.551865 422.061096,147.111206 422.252930,146.038239 
	C422.454010,144.278564 422.559875,143.151199 422.665771,142.023849 
	C422.837952,140.632324 423.010132,139.240784 423.309631,137.190308 
	C423.542236,135.154633 423.647583,133.777939 423.752930,132.401230 
	C424.064362,130.579575 424.375763,128.757935 424.775146,126.290932 
	C424.840240,125.093292 424.817383,124.541008 424.794495,123.988716 
	C425.602356,117.298653 426.410187,110.608597 427.353699,103.266312 
	C427.478546,102.067032 427.467712,101.519981 427.456848,100.972931 
	C427.653687,99.917824 427.850525,98.862717 428.119019,97.084404 
	C428.152039,95.909164 428.113373,95.457130 428.074707,95.005096 
	C428.715149,90.461922 429.355591,85.918755 430.089081,80.701294 
	C430.169952,79.337997 430.157776,78.648972 430.145569,77.959953 
	C430.465210,75.931107 430.784851,73.902260 431.201111,71.128151 
	C431.662537,69.305618 432.027313,68.228340 432.392120,67.151062 
	C463.657867,67.211685 494.923615,67.257698 526.189270,67.348778 
	C530.842285,67.362328 535.494690,67.588020 540.887207,67.771210 
	C542.089417,67.797607 542.551819,67.768364 543.014160,67.739128 
	C557.058960,69.345909 570.696045,72.229164 582.679382,80.922272 
	C583.553833,83.134270 584.711304,84.738838 585.177002,86.523880 
	C586.869568,93.011696 593.118530,93.146385 597.600830,95.741753 
	C607.429077,111.370560 611.791626,128.620193 612.286316,146.879486 
	C612.925293,170.458527 609.405762,193.409271 599.866211,215.100357 
	C586.213745,246.143646 561.695801,263.719452 529.111938,270.916016 
	C527.326660,271.310303 525.525940,271.634491 523.027527,272.047363 
	C521.213684,272.396759 520.104614,272.690063 518.995605,272.983398 
	C482.639008,273.503174 446.282410,274.022949 409.137115,274.543396 
	C407.878601,274.368225 407.408783,274.192352 406.938934,274.016479 
	C407.254181,271.615143 407.569427,269.213745 407.960510,266.086090 
	C408.002563,264.905304 407.968781,264.450775 407.934998,263.996277 
	C408.129913,262.959137 408.324799,261.921967 408.638489,260.222290 
	C408.782043,258.703278 408.806793,257.846771 408.831543,256.990265 
M486.324890,126.859909 
	C482.576660,158.321915 478.828430,189.783920 475.078979,221.255997 
	C485.208313,221.255997 494.702179,221.567581 504.168213,221.186768 
	C520.482971,220.530426 532.565979,212.438492 540.622070,198.537979 
	C548.902954,184.249390 551.523071,168.463181 549.836060,152.294266 
	C548.517395,139.654404 541.771729,129.555496 529.885071,124.335808 
	C516.202087,118.327293 501.546448,120.743187 487.222473,120.333900 
	C486.903656,122.705452 486.682922,124.347580 486.324890,126.859909 
z"/>
<path fill="#FDFDFD" opacity="1.000000" stroke="none" 
	d="
M692.184326,80.233154 
	C687.937927,116.225060 683.555115,151.752716 679.663452,187.334106 
	C678.859619,194.682892 679.130432,202.347412 680.252075,209.659927 
	C681.755371,219.460709 688.968079,225.550827 698.868835,227.151474 
	C720.815613,230.699615 734.539062,221.950531 740.222290,200.442413 
	C741.616516,195.165604 742.316772,189.675644 742.979980,184.240219 
	C747.716858,145.418411 752.361450,106.585342 757.051880,67.619225 
	C777.723145,67.619225 798.129150,67.619225 818.765137,67.619225 
	C815.295471,96.674423 811.950256,125.419296 808.401245,154.138992 
	C806.177368,172.135620 804.716125,190.316345 801.039368,208.025513 
	C792.504456,249.133102 765.690308,272.976227 723.792603,277.866516 
	C703.528442,280.231659 683.256287,280.389191 663.272339,275.168488 
	C633.565979,267.407867 616.129211,246.420578 616.172913,215.707886 
	C616.197937,198.138626 618.618286,180.536484 620.551392,163.014359 
	C623.800720,133.561844 627.517334,104.160858 631.051514,74.739883 
	C631.327637,72.441116 631.713745,70.155556 632.085205,67.614014 
	C652.467041,67.614014 672.711731,67.614014 693.601624,67.614014 
	C693.136169,71.720871 692.679016,75.754417 692.184326,80.233154 
z"/>
<path fill="#FDFDFD" opacity="1.000000" stroke="none" 
	d="
M214.476257,206.022812 
	C213.878265,210.698944 213.280273,215.375076 212.514328,220.816925 
	C212.011414,225.060837 211.676453,228.539017 211.341492,232.017197 
	C210.006607,242.737076 208.671707,253.456940 207.217712,264.935059 
	C207.095596,266.463715 207.092590,267.234131 207.089600,268.004547 
	C206.994156,268.445740 206.898712,268.886932 206.711456,269.917480 
	C206.578262,271.320526 206.536896,272.134216 206.495529,272.947937 
	C204.746552,273.466705 203.000381,274.425293 201.248154,274.436493 
	C182.807358,274.554626 164.365601,274.521484 145.319092,274.337524 
	C144.487488,273.763885 144.260910,273.382874 144.034317,273.001831 
	C144.213379,272.595184 144.392456,272.188568 144.694641,271.163513 
	C144.827347,269.694122 144.836929,268.843140 144.846527,267.992126 
	C145.850800,260.271942 146.855072,252.551743 147.931671,244.043671 
	C148.198761,241.163803 148.393524,239.071838 148.588287,236.979858 
	C148.826614,235.288834 149.064941,233.597824 149.439636,231.276825 
	C149.573151,230.091034 149.570282,229.535233 149.567413,228.979431 
	C149.828934,226.963531 150.090469,224.947647 150.492310,222.192322 
	C150.720261,219.964172 150.807877,218.475433 150.895493,216.986710 
	C150.971939,216.477432 151.048401,215.968155 150.997864,214.943756 
	C150.970139,213.935684 151.069427,213.442734 151.168701,212.949768 
	C151.579178,210.593597 151.989655,208.237427 152.525482,205.146210 
	C152.717224,203.271500 152.783600,202.131851 152.849991,200.992188 
	C156.605743,169.949585 160.361511,138.906982 164.224655,107.161812 
	C164.372726,105.630997 164.413406,104.802742 164.454071,103.974495 
	C165.021332,99.611351 165.588593,95.248215 166.284027,90.106956 
	C166.581497,87.217781 166.750809,85.106735 166.920135,82.995682 
	C167.303329,80.277748 167.686523,77.559822 168.156677,74.069847 
	C168.442657,71.529144 168.641663,69.760483 168.840683,67.991821 
	C170.604752,67.772156 172.368164,67.367813 174.132996,67.361549 
	C190.780426,67.302437 207.428116,67.311195 224.881317,67.311157 
	C227.479340,67.882248 229.271759,68.442566 231.064178,69.002876 
	C230.291260,74.709221 229.518341,80.415565 228.623505,86.834000 
	C228.516510,87.973206 228.531433,88.400322 228.546356,88.827431 
	C228.267715,90.929276 227.989075,93.031113 227.539001,95.850983 
	C227.113388,99.390022 226.859207,102.211052 226.605042,105.032074 
	C225.475235,113.743942 224.345428,122.455803 223.126266,131.901062 
	C223.064713,133.091644 223.092499,133.548828 223.120270,134.005997 
	C222.840408,135.748047 222.560547,137.490082 222.189026,139.927856 
	C222.116577,141.085037 222.135788,141.546509 222.154999,142.007965 
	C222.004227,143.056992 221.853455,144.106018 221.550232,145.853775 
	C221.301941,148.036865 221.206100,149.521225 221.110260,151.005585 
	C220.668091,154.376434 220.225906,157.747299 219.643951,161.855377 
	C219.391220,164.064575 219.278259,165.536560 219.165298,167.008530 
	C219.007935,168.058533 218.850555,169.108521 218.530930,170.853470 
	C218.284470,173.034241 218.200272,174.520050 218.116074,176.005875 
	C218.019440,176.446579 217.922821,176.887299 217.726868,177.997482 
	C217.463104,180.446884 217.298676,182.226822 217.134247,184.006744 
	C216.722519,187.055084 216.310776,190.103439 215.800934,193.920563 
	C215.533981,196.462784 215.365143,198.236252 215.196304,200.009705 
	C215.076599,200.753403 214.956879,201.497101 214.715851,202.877457 
	C214.555115,204.350342 214.515686,205.186584 214.476257,206.022812 
z"/>
<path fill="#F9F9F9" opacity="1.000000" stroke="none" 
	d="
M691.473511,50.414917 
	C692.814697,44.168430 693.812134,38.264446 695.374207,32.513817 
	C695.833252,30.823910 697.618225,28.883543 699.263062,28.224447 
	C710.814636,23.595423 722.468750,19.217571 734.147278,14.914795 
	C735.704834,14.340925 737.855164,14.020233 739.272522,14.636528 
	C750.196045,19.386156 761.006592,24.395866 772.011536,29.397364 
	C769.920288,39.345993 767.880493,49.049969 765.751648,59.177570 
	C755.111816,54.360607 744.782410,49.553741 734.315796,45.067005 
	C732.450989,44.267570 729.779968,44.136871 727.883972,44.818260 
	C715.318420,49.334229 702.862732,54.155819 689.867981,59.068199 
	C690.423218,55.966793 690.884338,53.391384 691.473511,50.414917 
z"/>
<path fill="#EDEDED" opacity="1.000000" stroke="none" 
	d="
M597.482361,95.406990 
	C593.118530,93.146385 586.869568,93.011696 585.177002,86.523880 
	C584.711304,84.738838 583.553833,83.134270 582.864380,81.208130 
	C587.797974,85.670326 592.580933,90.371277 597.482361,95.406990 
z"/>
<path fill="#0C0C0C" opacity="1.000000" stroke="none" 
	d="
M325.179810,248.917969 
	C326.841888,251.648117 328.263184,254.385422 329.294312,257.262543 
	C329.704926,258.408173 329.252319,259.863159 329.202820,261.545044 
	C328.065216,261.101990 326.917572,260.291138 325.769897,259.480286 
	C325.944275,259.289764 326.118652,259.099243 326.293030,258.908691 
	C324.596710,258.665070 322.900391,258.421448 319.976501,258.001495 
	C321.768524,254.638107 323.275513,251.809631 325.179810,248.917969 
z"/>
<path fill="#0B0B0B" opacity="1.000000" stroke="none" 
	d="
M216.213547,271.983887 
	C216.601471,272.550781 216.646927,273.124084 216.809906,274.113037 
	C215.876541,275.282837 214.664139,276.817841 213.805969,276.640350 
	C211.509460,276.165344 208.044662,276.692780 208.127930,272.298157 
	C208.000000,272.000000 207.998047,272.002167 207.998047,272.002136 
	C209.044510,271.183838 210.091003,270.365509 211.137482,269.547180 
	C211.098190,269.997192 211.058884,270.447235 211.019592,270.897278 
	C212.636749,271.261627 214.253906,271.625977 216.213547,271.983887 
z"/>
<path fill="#0B0B0B" opacity="1.000000" stroke="none" 
	d="
M231.413574,69.041801 
	C229.271759,68.442566 227.479340,67.882248 225.335327,67.189957 
	C227.928253,61.685154 231.109482,62.261246 236.249649,69.973663 
	C234.216919,69.569115 232.989944,69.324921 231.413574,69.041801 
z"/>
<path fill="#0C0C0C" opacity="1.000000" stroke="none" 
	d="
M331.031250,264.241028 
	C332.717499,266.946136 334.382507,270.022308 336.055664,273.462402 
	C335.739166,274.888458 335.414520,275.950562 335.089874,277.012634 
	C334.451355,277.027496 333.812866,277.042389 333.174377,277.057251 
	C332.452942,272.908844 331.731476,268.760437 331.031250,264.241028 
z"/>
<path fill="#0B0B0B" opacity="1.000000" stroke="none" 
	d="
M311.453644,80.936371 
	C309.077820,76.919998 307.031891,72.835182 304.989929,68.376892 
	C306.411377,67.838097 307.828888,67.672775 309.315582,67.499382 
	C308.982819,70.020569 305.583588,72.885658 310.763275,74.469185 
	C311.670654,74.746582 311.471619,78.642937 311.453644,80.936371 
z"/>
<path fill="#0B0B0B" opacity="1.000000" stroke="none" 
	d="
M219.585602,167.006714 
	C219.278259,165.536560 219.391220,164.064575 219.706238,162.285095 
	C221.068710,161.459167 222.229095,160.940720 223.758179,160.257553 
	C224.678635,162.280411 225.581009,164.263535 226.828400,167.004883 
	C224.190521,167.004883 222.098206,167.004883 219.585602,167.006714 
z"/>
<path fill="#0B0B0B" opacity="1.000000" stroke="none" 
	d="
M143.719543,272.975342 
	C144.260910,273.382874 144.487488,273.763885 144.863617,274.442657 
	C142.927841,276.414764 140.842529,278.089142 137.952881,280.409363 
	C137.925568,275.045929 140.358292,272.480530 143.719543,272.975342 
z"/>
<path fill="#0C0C0C" opacity="1.000000" stroke="none" 
	d="
M421.890259,69.761520 
	C420.680359,69.053085 419.683075,68.214294 418.328552,67.236122 
	C421.401581,64.069672 424.888336,63.683475 428.454468,66.526825 
	C426.228119,67.614944 424.165497,68.623055 421.890259,69.761520 
z"/>
<path fill="#0B0B0B" opacity="1.000000" stroke="none" 
	d="
M315.537262,92.981705 
	C314.435822,91.541405 313.740601,90.114052 313.059082,88.341217 
	C315.723083,89.139229 320.275879,86.875160 320.938477,92.994644 
	C319.049896,92.994644 317.496704,92.994644 315.537262,92.981705 
z"/>
<path fill="#0B0B0B" opacity="1.000000" stroke="none" 
	d="
M324.418976,114.931061 
	C323.299377,113.252678 322.515747,111.526505 321.669434,109.431625 
	C323.840851,108.903259 326.074982,108.743599 329.532837,108.496483 
	C327.637268,111.030357 326.196106,112.956818 324.418976,114.931061 
z"/>
<path fill="#0B0B0B" opacity="1.000000" stroke="none" 
	d="
M168.514313,68.050293 
	C168.641663,69.760483 168.442657,71.529144 168.097076,73.650139 
	C164.559128,74.402016 162.229996,73.566696 162.423279,70.812996 
	C164.882950,69.659157 166.535446,68.883965 168.514313,68.050293 
z"/>
<path fill="#0B0B0B" opacity="1.000000" stroke="none" 
	d="
M211.668457,231.964737 
	C211.676453,228.539017 212.011414,225.060837 212.565460,221.256973 
	C213.138550,224.635956 217.063416,228.597244 211.668457,231.964737 
z"/>
<path fill="#0B0B0B" opacity="1.000000" stroke="none" 
	d="
M226.949005,105.015678 
	C226.859207,102.211052 227.113388,99.390022 227.591599,96.255035 
	C228.860489,98.359459 229.905334,100.777847 231.133667,103.620888 
	C230.201126,103.955566 228.747040,104.477425 226.949005,105.015678 
z"/>
<path fill="#0B0B0B" opacity="1.000000" stroke="none" 
	d="
M223.196014,213.132355 
	C223.344437,215.530289 223.124039,217.847565 222.776215,220.403381 
	C219.819595,218.346725 218.349411,215.561432 219.389481,211.410980 
	C220.690582,212.031937 221.758881,212.541809 223.196014,213.132355 
z"/>
<path fill="#0C0C0C" opacity="1.000000" stroke="none" 
	d="
M423.372101,132.312958 
	C423.647583,133.777939 423.542236,135.154633 423.251343,136.772247 
	C421.812897,137.705978 420.559937,138.398804 418.922302,139.304367 
	C418.065704,135.480469 420.252258,133.704483 423.372101,132.312958 
z"/>
<path fill="#0B0B0B" opacity="1.000000" stroke="none" 
	d="
M276.425049,265.040619 
	C276.240295,262.890991 276.404510,260.777863 276.755280,258.323975 
	C277.859253,259.496857 279.042084,260.914032 279.635101,262.545563 
	C280.657410,265.358215 279.460999,266.186096 276.425049,265.040619 
z"/>
<path fill="#0B0B0B" opacity="1.000000" stroke="none" 
	d="
M166.554810,82.997177 
	C166.750809,85.106735 166.581497,87.217781 166.227707,89.670456 
	C161.915222,89.051552 164.233276,85.988976 164.001770,83.378609 
	C164.000000,83.000000 163.997620,83.002174 163.997620,83.002174 
	C164.728256,83.001007 165.458878,82.999840 166.554810,82.997177 
z"/>
<path fill="#0C0C0C" opacity="1.000000" stroke="none" 
	d="
M414.657654,203.996338 
	C415.055176,204.452805 415.098724,204.904877 415.023254,205.681091 
	C413.576691,206.426361 412.249146,206.847458 410.160889,207.509842 
	C409.992554,205.981766 409.817230,204.390610 409.571350,202.158936 
	C411.774445,203.012268 413.039032,203.502090 414.657654,203.996338 
z"/>
<path fill="#0C0C0C" opacity="1.000000" stroke="none" 
	d="
M406.596558,274.065399 
	C407.408783,274.192352 407.878601,274.368225 408.696411,274.696686 
	C409.173706,278.291199 407.235748,278.394348 403.866852,277.368500 
	C404.795898,276.102112 405.525055,275.108215 406.596558,274.065399 
z"/>
<path fill="#0B0B0B" opacity="1.000000" stroke="none" 
	d="
M328.050079,123.880280 
	C327.190674,122.753624 326.490906,121.269753 325.766907,119.426804 
	C326.380310,118.037437 327.018005,117.007133 328.209717,115.081696 
	C328.209717,118.477974 328.209717,121.000519 328.050079,123.880280 
z"/>
<path fill="#0C0C0C" opacity="1.000000" stroke="none" 
	d="
M402.367798,232.884735 
	C402.192810,231.519501 402.281403,230.041519 402.569183,228.252197 
	C403.729248,228.348022 404.690155,228.755142 405.651062,229.162277 
	C404.644531,230.365509 403.637970,231.568726 402.367798,232.884735 
z"/>
<path fill="#0B0B0B" opacity="1.000000" stroke="none" 
	d="
M228.884308,88.893387 
	C228.531433,88.400322 228.516510,87.973206 228.687164,87.277405 
	C230.430267,87.008705 231.987793,87.008705 234.815598,87.008705 
	C233.331421,89.131241 232.598389,90.179550 231.874756,91.214409 
	C230.826736,90.323425 230.024490,89.641388 228.884308,88.893387 
z"/>
<path fill="#0B0B0B" opacity="1.000000" stroke="none" 
	d="
M224.350525,203.974518 
	C224.642075,204.836456 224.609253,205.689545 224.371429,206.792816 
	C223.022842,206.970139 221.879242,206.897232 220.735641,206.824326 
	C220.559525,206.326965 220.383392,205.829620 220.207275,205.332275 
	C221.480240,204.876724 222.753204,204.421188 224.350525,203.974518 
z"/>
<path fill="#0B0B0B" opacity="1.000000" stroke="none" 
	d="
M148.264343,237.072296 
	C148.393524,239.071838 148.198761,241.163803 147.884796,243.633514 
	C144.117538,241.634445 147.078217,239.426392 148.264343,237.072296 
z"/>
<path fill="#0B0B0B" opacity="1.000000" stroke="none" 
	d="
M217.475342,183.932144 
	C217.298676,182.226822 217.463104,180.446884 217.799927,178.330200 
	C221.340515,180.039062 218.764984,181.926682 217.475342,183.932144 
z"/>
<path fill="#0B0B0B" opacity="1.000000" stroke="none" 
	d="
M319.976501,103.924927 
	C318.797852,102.305550 317.931122,100.493851 317.084625,98.338333 
	C319.302490,99.276711 322.090149,100.231529 319.976501,103.924927 
z"/>
<path fill="#0C0C0C" opacity="1.000000" stroke="none" 
	d="
M519.004272,273.343811 
	C520.104614,272.690063 521.213684,272.396759 522.668091,272.169403 
	C522.155640,273.436035 521.297668,274.636658 520.439697,275.837280 
	C519.964111,275.126282 519.488525,274.415253 519.004272,273.343811 
z"/>
<path fill="#0B0B0B" opacity="1.000000" stroke="none" 
	d="
M273.106781,275.091980 
	C273.510284,274.575165 274.047424,274.330261 274.813446,273.894348 
	C275.677460,274.168579 276.440521,274.532867 276.910645,275.128387 
	C277.355316,275.691681 277.492401,276.497833 276.974091,278.058350 
	C275.729523,277.160217 274.484955,276.262085 273.106781,275.091980 
z"/>
<path fill="#0B0B0B" opacity="1.000000" stroke="none" 
	d="
M150.619263,216.874603 
	C150.807877,218.475433 150.720261,219.964172 150.424225,221.760818 
	C147.651978,218.089066 147.656250,217.910782 150.619263,216.874603 
z"/>
<path fill="#0C0C0C" opacity="1.000000" stroke="none" 
	d="
M419.779572,89.931412 
	C419.647949,89.487022 419.724091,89.504967 419.734497,89.469337 
	C422.545593,90.947517 423.902374,92.899147 421.584656,96.370895 
	C420.960205,94.133896 420.435699,92.254852 419.779572,89.931412 
z"/>
<path fill="#0B0B0B" opacity="1.000000" stroke="none" 
	d="
M215.545197,199.922058 
	C215.365143,198.236252 215.533981,196.462784 215.859970,194.347076 
	C215.976120,195.948013 215.935104,197.891220 215.545197,199.922058 
z"/>
<path fill="#0B0B0B" opacity="1.000000" stroke="none" 
	d="
M152.477966,201.006775 
	C152.783600,202.131851 152.717224,203.271500 152.456451,204.696045 
	C151.536789,204.341736 150.811539,203.702545 150.086304,203.063339 
	C150.759521,202.382690 151.432724,201.702042 152.477966,201.006775 
z"/>
<path fill="#0B0B0B" opacity="1.000000" stroke="none" 
	d="
M218.403107,175.960968 
	C218.200272,174.520050 218.284470,173.034241 218.587036,171.248703 
	C221.962479,172.678833 219.568573,174.279861 218.403107,175.960968 
z"/>
<path fill="#0B0B0B" opacity="1.000000" stroke="none" 
	d="
M221.461777,150.926514 
	C221.206100,149.521225 221.301941,148.036865 221.610031,146.248016 
	C221.819290,147.578171 221.816299,149.212799 221.461777,150.926514 
z"/>
<path fill="#0C0C0C" opacity="1.000000" stroke="none" 
	d="
M408.466980,257.002930 
	C408.806793,257.846771 408.782043,258.703278 408.578461,259.829834 
	C407.660095,259.617432 406.920593,259.135010 406.181091,258.652618 
	C406.821533,258.106934 407.461975,257.561249 408.466980,257.002930 
z"/>
<path fill="#0B0B0B" opacity="1.000000" stroke="none" 
	d="
M231.312958,145.242493 
	C231.748596,145.688278 231.771194,146.057144 231.644531,146.664398 
	C230.457092,147.476105 229.418915,148.049438 228.380737,148.622787 
	C228.108932,148.425568 227.837143,148.228333 227.565353,148.031113 
	C228.676880,147.075943 229.788391,146.120758 231.312958,145.242493 
z"/>
<path fill="#0B0B0B" opacity="1.000000" stroke="none" 
	d="
M222.506165,142.005692 
	C222.135788,141.546509 222.116577,141.085037 222.236328,140.302429 
	C223.424835,140.134811 224.474380,140.288345 225.523926,140.441864 
	C225.556244,140.712601 225.588577,140.983353 225.620911,141.254105 
	C224.699707,141.503876 223.778519,141.753647 222.506165,142.005692 
z"/>
<path fill="#0C0C0C" opacity="1.000000" stroke="none" 
	d="
M432.024384,67.131485 
	C432.027313,68.228340 431.662537,69.305618 431.139221,70.688759 
	C431.205994,69.700378 431.431335,68.406143 432.024384,67.131485 
z"/>
<path fill="#0B0B0B" opacity="1.000000" stroke="none" 
	d="
M143.003021,267.997559 
	C142.147034,267.683868 141.291046,267.370178 140.435059,267.056488 
	C140.755615,266.538300 141.076172,266.020111 141.396729,265.501892 
	C141.926025,266.104889 142.455353,266.707886 142.992340,267.655457 
	C143.000000,268.000000 143.003021,267.997559 143.003021,267.997559 
z"/>
<path fill="#0B0B0B" opacity="1.000000" stroke="none" 
	d="
M150.865326,212.942993 
	C151.069427,213.442734 150.970139,213.935684 150.708221,214.681931 
	C149.835052,214.702560 149.124542,214.469925 148.414032,214.237274 
	C149.130005,213.803589 149.845978,213.369919 150.865326,212.942993 
z"/>
<path fill="#0B0B0B" opacity="1.000000" stroke="none" 
	d="
M144.538406,267.993439 
	C144.836929,268.843140 144.827347,269.694122 144.667877,270.829468 
	C143.926376,270.284912 143.334793,269.456024 142.873108,268.312378 
	C143.003021,267.997559 143.000000,268.000000 142.998871,268.001221 
	C143.408585,267.999878 143.819427,267.997314 144.538406,267.993439 
z"/>
<path fill="#0B0B0B" opacity="1.000000" stroke="none" 
	d="
M214.734116,238.199310 
	C214.932449,238.986542 214.807022,239.725937 214.681580,240.465347 
	C214.262802,240.391296 213.844025,240.317245 213.425232,240.243195 
	C213.753601,239.545959 214.081970,238.848724 214.734116,238.199310 
z"/>
<path fill="#0C0C0C" opacity="1.000000" stroke="none" 
	d="
M524.823181,275.387939 
	C526.013794,275.138153 526.954163,275.085358 527.894531,275.032562 
	C527.817627,275.457275 527.740662,275.881989 527.663757,276.306732 
	C526.633484,276.066101 525.603210,275.825500 524.823181,275.387939 
z"/>
<path fill="#0C0C0C" opacity="1.000000" stroke="none" 
	d="
M429.819092,78.004349 
	C430.157776,78.648972 430.169952,79.337997 430.059509,80.198837 
	C429.357544,80.113350 428.778198,79.856049 428.198822,79.598755 
	C428.630096,79.082092 429.061371,78.565422 429.819092,78.004349 
z"/>
<path fill="#0B0B0B" opacity="1.000000" stroke="none" 
	d="
M225.609222,156.566116 
	C226.482132,156.857895 227.145905,157.353439 227.809677,157.848984 
	C227.484924,158.165115 227.160156,158.481232 226.835403,158.797348 
	C226.356964,158.121536 225.878525,157.445709 225.609222,156.566116 
z"/>
<path fill="#0B0B0B" opacity="1.000000" stroke="none" 
	d="
M220.422241,237.054993 
	C220.709839,237.846573 220.679962,238.705887 220.450012,239.822937 
	C220.201538,239.094696 220.153168,238.108704 220.422241,237.054993 
z"/>
<path fill="#0B0B0B" opacity="1.000000" stroke="none" 
	d="
M214.767487,205.946411 
	C214.515686,205.186584 214.555115,204.350342 214.775909,203.250870 
	C214.991104,203.948425 215.024918,204.909225 214.767487,205.946411 
z"/>
<path fill="#0C0C0C" opacity="1.000000" stroke="none" 
	d="
M403.433777,223.954834 
	C403.125488,223.237167 403.126434,222.467300 403.271240,221.337601 
	C403.524384,221.952728 403.633698,222.927658 403.433777,223.954834 
z"/>
<path fill="#0C0C0C" opacity="1.000000" stroke="none" 
	d="
M401.549591,239.943695 
	C401.245819,239.150681 401.266083,238.288940 401.474609,237.160797 
	C401.733154,237.887924 401.803406,238.881470 401.549591,239.943695 
z"/>
<path fill="#0B0B0B" opacity="1.000000" stroke="none" 
	d="
M207.401520,267.954834 
	C207.092590,267.234131 207.095596,266.463715 207.251953,265.336914 
	C207.508026,265.955414 207.610733,266.930267 207.401520,267.954834 
z"/>
<path fill="#0C0C0C" opacity="1.000000" stroke="none" 
	d="
M421.559845,148.044189 
	C421.862915,148.763748 421.857910,149.534958 421.704803,150.664948 
	C421.455078,150.047760 421.353424,149.071793 421.559845,148.044189 
z"/>
<path fill="#0B0B0B" opacity="1.000000" stroke="none" 
	d="
M239.249603,80.050781 
	C239.472687,80.805885 239.404617,81.633835 239.171082,82.731689 
	C238.989899,82.042274 238.974182,81.082947 239.249603,80.050781 
z"/>
<path fill="#0C0C0C" opacity="1.000000" stroke="none" 
	d="
M411.426086,157.932220 
	C411.080444,157.151245 411.082062,156.297928 411.215393,155.149948 
	C411.489197,155.856812 411.631287,156.858353 411.426086,157.932220 
z"/>
<path fill="#0B0B0B" opacity="1.000000" stroke="none" 
	d="
M164.170685,104.056702 
	C164.413406,104.802742 164.372726,105.630997 164.166840,106.729858 
	C163.963531,106.046623 163.925400,105.092766 164.170685,104.056702 
z"/>
<path fill="#0C0C0C" opacity="1.000000" stroke="none" 
	d="
M422.451111,142.232849 
	C422.559875,143.151199 422.454010,144.278564 422.181702,145.705109 
	C422.089020,144.816818 422.162750,143.629333 422.451111,142.232849 
z"/>
<path fill="#0C0C0C" opacity="1.000000" stroke="none" 
	d="
M414.178925,135.981888 
	C413.808075,135.533463 413.791168,135.082962 413.907196,134.315094 
	C414.855743,134.330017 415.671387,134.662323 416.487000,134.994629 
	C415.835602,135.323013 415.184235,135.651413 414.178925,135.981888 
z"/>
<path fill="#0C0C0C" opacity="1.000000" stroke="none" 
	d="
M406.347412,224.959961 
	C406.645447,224.362671 406.977112,224.040222 407.308777,223.717773 
	C407.480164,224.095474 407.651581,224.473175 407.822998,224.850861 
	C407.342346,224.978851 406.861694,225.106827 406.347412,224.959961 
z"/>
<path fill="#0B0B0B" opacity="1.000000" stroke="none" 
	d="
M236.637573,100.868126 
	C236.956467,101.162430 237.001846,101.336288 236.942932,101.758690 
	C236.032623,101.673279 235.226608,101.339317 234.420578,101.005356 
	C235.068405,100.919472 235.716232,100.833580 236.637573,100.868126 
z"/>
<path fill="#0C0C0C" opacity="1.000000" stroke="none" 
	d="
M414.367065,148.877716 
	C414.909943,149.125427 415.274780,149.564209 415.590851,150.035660 
	C415.605194,150.057083 415.179657,150.373413 414.958984,150.552368 
	C414.699219,150.059906 414.439453,149.567474 414.367065,148.877716 
z"/>
<path fill="#0C0C0C" opacity="1.000000" stroke="none" 
	d="
M406.433960,232.432495 
	C406.936218,232.111023 407.328491,232.038635 407.720734,231.966248 
	C407.541718,232.494080 407.362671,233.021927 407.183655,233.549759 
	C406.897064,233.260361 406.610504,232.970978 406.433960,232.432495 
z"/>
<path fill="#0B0B0B" opacity="1.000000" stroke="none" 
	d="
M206.685974,272.828430 
	C206.536896,272.134216 206.578262,271.320526 206.793823,270.248810 
	C207.296234,270.460236 207.624451,270.929626 207.975372,271.700623 
	C207.998047,272.002167 208.000000,272.000000 208.000977,271.998779 
	C207.626770,272.234711 207.251587,272.471832 206.685974,272.828430 
z"/>
<path fill="#0B0B0B" opacity="1.000000" stroke="none" 
	d="
M304.920532,67.736740 
	C304.186707,67.774872 303.377441,67.540855 302.276215,67.180756 
	C302.453522,66.718102 302.922791,66.381531 303.696014,66.022476 
	C304.000000,66.000000 304.001221,66.001526 304.001221,66.001526 
	C304.282501,66.489212 304.563782,66.976898 304.920532,67.736740 
z"/>
<path fill="#0C0C0C" opacity="1.000000" stroke="none" 
	d="
M414.565125,207.164459 
	C414.805786,207.860809 414.775391,208.717865 414.564087,209.844116 
	C414.353455,209.183929 414.323761,208.254562 414.565125,207.164459 
z"/>
<path fill="#0C0C0C" opacity="1.000000" stroke="none" 
	d="
M542.976074,67.474625 
	C542.551819,67.768364 542.089417,67.797607 541.302002,67.696045 
	C541.630554,67.446869 542.284241,67.328499 542.976074,67.474625 
z"/>
<path fill="#0B0B0B" opacity="1.000000" stroke="none" 
	d="
M275.501099,271.973175 
	C275.137878,271.459045 275.122955,270.845123 275.241150,270.038086 
	C275.532623,270.521118 275.690979,271.197266 275.501099,271.973175 
z"/>
<path fill="#0C0C0C" opacity="1.000000" stroke="none" 
	d="
M427.198456,101.035538 
	C427.467712,101.519981 427.478546,102.067032 427.301086,102.824173 
	C427.055237,102.388885 426.997650,101.743523 427.198456,101.035538 
z"/>
<path fill="#0B0B0B" opacity="1.000000" stroke="none" 
	d="
M149.296356,229.035675 
	C149.570282,229.535233 149.573151,230.091034 149.379639,230.852661 
	C149.130600,230.402954 149.077942,229.747452 149.296356,229.035675 
z"/>
<path fill="#0B0B0B" opacity="1.000000" stroke="none" 
	d="
M221.380096,228.977295 
	C221.728241,229.500916 221.745483,230.136124 221.602234,230.953491 
	C221.310898,230.453384 221.180038,229.771149 221.380096,228.977295 
z"/>
<path fill="#0C0C0C" opacity="1.000000" stroke="none" 
	d="
M427.773987,95.039703 
	C428.113373,95.457130 428.152039,95.909164 428.064453,96.682266 
	C427.433014,96.748947 426.927765,96.494568 426.422546,96.240189 
	C426.772797,95.851562 427.123047,95.462936 427.773987,95.039703 
z"/>
<path fill="#0C0C0C" opacity="1.000000" stroke="none" 
	d="
M420.905334,77.956314 
	C420.643372,77.495758 420.625214,76.961494 420.775208,76.205460 
	C421.011932,76.616653 421.080536,77.249634 420.905334,77.956314 
z"/>
<path fill="#0B0B0B" opacity="1.000000" stroke="none" 
	d="
M277.836853,251.961136 
	C277.593231,251.492828 277.600952,250.959473 277.776672,250.204987 
	C277.992523,250.621262 278.040375,251.258682 277.836853,251.961136 
z"/>
<path fill="#0C0C0C" opacity="1.000000" stroke="none" 
	d="
M424.486450,124.050713 
	C424.817383,124.541008 424.840240,125.093292 424.735901,125.894722 
	C424.465240,125.466812 424.321808,124.789764 424.486450,124.050713 
z"/>
<path fill="#0C0C0C" opacity="1.000000" stroke="none" 
	d="
M413.416382,215.988953 
	C413.764923,216.509125 413.776428,217.136398 413.641876,217.952972 
	C413.356995,217.460190 413.218170,216.778107 413.416382,215.988953 
z"/>
<path fill="#0B0B0B" opacity="1.000000" stroke="none" 
	d="
M223.399200,133.965759 
	C223.092499,133.548828 223.064713,133.091644 223.160980,132.310532 
	C223.728622,132.333069 224.172195,132.679565 224.615768,133.026047 
	C224.303223,133.325867 223.990662,133.625687 223.399200,133.965759 
z"/>
<path fill="#0C0C0C" opacity="1.000000" stroke="none" 
	d="
M413.512848,139.976608 
	C413.154144,139.467834 413.142670,138.858292 413.250793,138.049988 
	C413.533600,138.526108 413.696838,139.200974 413.512848,139.976608 
z"/>
<path fill="#0B0B0B" opacity="1.000000" stroke="none" 
	d="
M299.870972,66.816658 
	C299.460419,67.135635 298.903809,67.218971 298.164001,67.183868 
	C298.562164,66.903954 299.143555,66.742485 299.870972,66.816658 
z"/>
<path fill="#0C0C0C" opacity="1.000000" stroke="none" 
	d="
M407.649780,264.036316 
	C407.968781,264.450775 408.002563,264.905304 407.919189,265.685089 
	C407.337219,265.669525 406.872375,265.328674 406.407532,264.987854 
	C406.726562,264.684021 407.045593,264.380188 407.649780,264.036316 
z"/>
<path fill="#0C0C0C" opacity="1.000000" stroke="none" 
	d="
M397.716705,270.970703 
	C397.456726,270.472137 397.466858,269.920898 397.668091,269.163025 
	C397.901764,269.610260 397.944275,270.264130 397.716705,270.970703 
z"/>
<path fill="#0B0B0B" opacity="1.000000" stroke="none" 
	d="
M224.721436,200.036774 
	C225.043503,200.453232 225.072617,200.905685 224.982635,201.682220 
	C224.385147,201.663925 223.906754,201.321503 223.428360,200.979095 
	C223.761719,200.676987 224.095093,200.374878 224.721436,200.036774 
z"/>
<path fill="#0C0C0C" opacity="1.000000" stroke="none" 
	d="
M413.654938,199.981873 
	C413.311951,199.450302 413.170013,198.750778 413.028046,198.051254 
	C413.245209,198.017471 413.462372,197.983704 413.679535,197.949921 
	C413.738342,198.571259 413.797150,199.192581 413.654938,199.981873 
z"/>
<path fill="#0B0B0B" opacity="1.000000" stroke="none" 
	d="
M216.727600,267.036438 
	C217.050827,267.454254 217.080139,267.907379 216.988663,268.683289 
	C216.388138,268.663483 215.908401,268.320862 215.428665,267.978241 
	C215.763672,267.676056 216.098679,267.373871 216.727600,267.036438 
z"/>
<path fill="#0C0C0C" opacity="1.000000" stroke="none" 
	d="
M420.451477,158.018478 
	C420.728973,158.455353 420.747589,158.926361 420.598572,159.712967 
	C420.351501,159.369919 420.272034,158.711273 420.451477,158.018478 
z"/>
<path fill="#0B0B0B" opacity="1.000000" stroke="none" 
	d="
M303.999390,65.999237 
	C304.151581,65.545677 304.304352,65.092880 304.457153,64.640091 
	C304.738007,64.773453 305.018860,64.906822 305.299713,65.040176 
	C305.037354,65.349281 304.774963,65.658386 304.256897,65.984505 
	C304.001221,66.001526 304.000000,66.000000 303.999390,65.999237 
z"/>
<path fill="#0C0C0C" opacity="1.000000" stroke="none" 
	d="
M518.722900,277.875244 
	C518.252136,277.776276 518.005127,277.637634 517.758179,277.498962 
	C518.004883,277.360779 518.312683,277.061005 518.482849,277.125305 
	C518.696411,277.206024 518.797241,277.585205 518.722900,277.875244 
z"/>
<path fill="#0B0B0B" opacity="1.000000" stroke="none" 
	d="
M235.116165,85.296249 
	C235.406631,85.214058 235.790756,85.303719 235.875015,85.513718 
	C235.942856,85.682724 235.648026,85.997276 235.514099,86.247246 
	C235.369507,86.004852 235.224915,85.762459 235.116165,85.296249 
z"/>
<path fill="#0B0B0B" opacity="1.000000" stroke="none" 
	d="
M229.692062,134.919022 
	C229.724152,135.470505 229.595978,135.861740 229.467804,136.252975 
	C229.360794,136.146149 229.147110,136.015503 229.164764,135.936493 
	C229.254059,135.536545 229.403473,135.150009 229.692062,134.919022 
z"/>
<path fill="#0B0B0B" opacity="1.000000" stroke="none" 
	d="
M164.001007,82.999344 
	C163.672852,82.384163 163.343704,81.769646 163.014557,81.155121 
	C163.247818,81.067932 163.481094,80.980736 163.714355,80.893547 
	C163.808975,81.398529 163.903580,81.903503 163.997910,82.705330 
	C163.997620,83.002174 164.000000,83.000000 164.001007,82.999344 
z"/>
<path fill="#0C0C0C" opacity="1.000000" stroke="none" 
	d="
M418.123718,146.724731 
	C418.222748,146.253479 418.361542,146.006241 418.500336,145.759003 
	C418.638702,146.005920 418.938965,146.314148 418.874542,146.484329 
	C418.793579,146.698212 418.414093,146.799103 418.123718,146.724731 
z"/>
<path fill="#0C0C0C" opacity="1.000000" stroke="none" 
	d="
M407.309418,218.075867 
	C407.277924,217.529099 407.404816,217.141464 407.531708,216.753815 
	C407.637512,216.859833 407.848907,216.989395 407.831390,217.067886 
	C407.743011,217.464218 407.594940,217.847260 407.309418,218.075867 
z"/>
<path fill="#0B0B0B" opacity="1.000000" stroke="none" 
	d="
M146.690979,205.924255 
	C146.722595,206.471786 146.595428,206.860046 146.468277,207.248306 
	C146.362213,207.142181 146.150375,207.012421 146.167923,206.933899 
	C146.256561,206.536942 146.404846,206.153305 146.690979,205.924255 
z"/>
<path fill="#0B0B0B" opacity="1.000000" stroke="none" 
	d="
M237.877319,71.275581 
	C237.778000,71.747269 237.638733,71.994644 237.499466,72.242012 
	C237.360687,71.994911 237.059097,71.685204 237.123993,71.516434 
	C237.206573,71.301697 237.585968,71.201088 237.877319,71.275581 
z"/>
<path fill="#0C0C0C" opacity="1.000000" stroke="none" 
	d="
M415.114014,158.293121 
	C415.406372,158.210510 415.792053,158.300323 415.877472,158.511551 
	C415.945801,158.680481 415.648926,158.997070 415.514130,159.248138 
	C415.368652,159.004745 415.223206,158.761353 415.114014,158.293121 
z"/>
<path fill="#0B0B0B" opacity="1.000000" stroke="none" 
	d="
M280.642090,252.744614 
	C280.627319,252.992493 280.494659,253.127502 280.362000,253.262512 
	C280.416046,253.052261 280.470123,252.842010 280.642090,252.744614 
z"/>
<path fill="#0C0C0C" opacity="1.000000" stroke="none" 
	d="
M400.740967,272.354431 
	C400.992371,272.369202 401.129425,272.503754 401.266479,272.638336 
	C401.053192,272.583649 400.839874,272.528961 400.740967,272.354431 
z"/>
<path fill="#0B0B0B" opacity="1.000000" stroke="none" 
	d="
M218.642212,203.745239 
	C218.627457,203.992111 218.495255,204.126602 218.363068,204.261078 
	C218.416962,204.051666 218.470856,203.842255 218.642212,203.745239 
z"/>
<path fill="#0C0C0C" opacity="1.000000" stroke="none" 
	d="
M322.400024,261.721802 
	C322.559021,261.847931 322.581909,262.066284 322.604797,262.284607 
	C322.491180,262.127747 322.377563,261.970856 322.400024,261.721802 
z"/>
<path fill="#0C0C0C" opacity="1.000000" stroke="none" 
	d="
M364.978027,66.794128 
	C364.840759,67.136284 364.685181,67.218117 364.272949,67.239594 
	C364.196808,66.733315 364.377319,66.287392 364.557800,65.841476 
	C364.691803,66.072250 364.825775,66.303024 364.978027,66.794128 
z"/>
<path fill="#0B0B0B" opacity="1.000000" stroke="none" 
	d="
M280.751953,256.989014 
	C280.588348,257.097321 280.423218,257.044128 280.258118,256.990906 
	C280.422211,256.936462 280.586334,256.881989 280.751953,256.989014 
z"/>
<path fill="#0B0B0B" opacity="1.000000" stroke="none" 
	d="
M209.534180,277.552032 
	C209.476471,277.586609 209.591888,277.517456 209.534180,277.552032 
z"/>
<path fill="#0C0C0C" opacity="1.000000" stroke="none" 
	d="
M509.450195,277.530823 
	C509.418152,277.476929 509.482269,277.584747 509.450195,277.530823 
z"/>
<path fill="#0B0B0B" opacity="1.000000" stroke="none" 
	d="
M320.551331,97.467812 
	C320.585358,97.524773 320.517303,97.410851 320.551331,97.467812 
z"/>
<path fill="#0C0C0C" opacity="1.000000" stroke="none" 
	d="
M425.532928,69.550911 
	C425.476776,69.584549 425.589081,69.517273 425.532928,69.550911 
z"/>
<path fill="#0C0C0C" opacity="1.000000" stroke="none" 
	d="
M418.451141,109.531464 
	C418.419159,109.477211 418.483124,109.585716 418.451141,109.531464 
z"/>
<path fill="#0B0B0B" opacity="1.000000" stroke="none" 
	d="
M227.549500,111.466766 
	C227.582001,111.521652 227.516998,111.411888 227.549500,111.466766 
z"/>
<path fill="#0C0C0C" opacity="1.000000" stroke="none" 
	d="
M404.532104,271.551514 
	C404.477081,271.584503 404.587128,271.518494 404.532104,271.551514 
z"/>
<path fill="#0C0C0C" opacity="1.000000" stroke="none" 
	d="
M420.532104,142.551422 
	C420.477051,142.584427 420.587128,142.518402 420.532104,142.551422 
z"/>
<path fill="#0B0B0B" opacity="1.000000" stroke="none" 
	d="
M226.468536,147.449341 
	C226.523331,147.416519 226.413742,147.482162 226.468536,147.449341 
z"/>
<path fill="#0B0B0B" opacity="1.000000" stroke="none" 
	d="
M148.468216,200.449432 
	C148.522781,200.416870 148.413651,200.482010 148.468216,200.449432 
z"/>
<path fill="#0B0B0B" opacity="1.000000" stroke="none" 
	d="
M221.427734,221.403076 
	C221.647888,221.486435 221.565109,221.618896 221.607376,221.694946 
	C221.364594,221.682083 221.079529,221.593185 220.794479,221.504272 
	C220.932175,221.442764 221.069870,221.381241 221.427734,221.403076 
z"/>
<path fill="#0B0B0B" opacity="1.000000" stroke="none" 
	d="
M221.422821,224.413910 
	C221.639648,224.502762 221.555801,224.606155 221.600754,224.664093 
	C221.361038,224.648422 221.076385,224.574799 220.791718,224.501160 
	C220.929810,224.442444 221.067886,224.383743 221.422821,224.413910 
z"/>
<path fill="#030303" opacity="1.000000" stroke="none" 
	d="
M486.393524,126.424812 
	C486.682922,124.347580 486.903656,122.705452 487.222473,120.333900 
	C501.546448,120.743187 516.202087,118.327293 529.885071,124.335808 
	C541.771729,129.555496 548.517395,139.654404 549.836060,152.294266 
	C551.523071,168.463181 548.902954,184.249390 540.622070,198.537979 
	C532.565979,212.438492 520.482971,220.530426 504.168213,221.186768 
	C494.702179,221.567581 485.208313,221.255997 475.078979,221.255997 
	C478.828430,189.783920 482.576660,158.321915 486.393524,126.424812 
z"/>
</svg>